<svg width="25" height="24" viewBox="0 0 25 24" fill="none" xmlns="http://www.w3.org/2000/svg">
<g clip-path="url(#clip0_27_6)">
<path d="M6.04664 14.4182L5.23971 17.4306L2.29041 17.493C1.40901 15.8582 0.909058 13.9877 0.909058 12.0001C0.909058 10.078 1.3765 8.26549 2.20507 6.66953H2.2057L4.8314 7.15091L5.98162 9.76086C5.74088 10.4627 5.60967 11.2161 5.60967 12.0001C5.60976 12.8509 5.76388 13.6661 6.04664 14.4182Z" fill="#FBBB00"/>
<path d="M23.8883 9.83444C24.0214 10.5356 24.0908 11.2597 24.0908 11.9998C24.0908 12.8296 24.0035 13.6391 23.8373 14.4199C23.2731 17.0769 21.7987 19.3969 19.7563 21.0388L19.7557 21.0381L16.4485 20.8694L15.9804 17.9474C17.3356 17.1527 18.3948 15.9088 18.9527 14.4199H12.7547V9.83444H19.0431H23.8883Z" fill="#518EF8"/>
<path d="M19.7557 21.0385L19.7563 21.0391C17.77 22.6357 15.2467 23.591 12.4999 23.591C8.0858 23.591 4.24808 21.1238 2.29034 17.493L6.04657 14.4183C7.02541 17.0307 9.54549 18.8903 12.4999 18.8903C13.7698 18.8903 14.9595 18.547 15.9803 17.9478L19.7557 21.0385Z" fill="#28B446"/>
<path d="M19.8984 3.07753L16.1435 6.15166C15.0869 5.49125 13.838 5.10975 12.5 5.10975C9.47869 5.10975 6.91148 7.05471 5.98168 9.76078L2.20571 6.66945H2.20508C4.13415 2.95017 8.02027 0.409088 12.5 0.409088C15.3124 0.409088 17.891 1.41089 19.8984 3.07753Z" fill="#F14336"/>
</g>
<defs>
<clipPath id="clip0_27_6">
<rect width="23.1818" height="23.1818" fill="white" transform="translate(0.909058 0.409088)"/>
</clipPath>
</defs>
</svg>
